<svg width="52" height="34" viewBox="0 0 52 34" fill="none" xmlns="http://www.w3.org/2000/svg">
<path d="M52 16.6611V16.8378C51.9533 17.1783 51.8585 17.4438 51.7156 17.634C48.9613 21.2923 45.7966 24.4952 42.2216 27.2428C40.969 28.2057 39.629 29.1045 38.2017 29.9393C35.2686 31.6557 32.0084 32.9029 28.6528 33.3356C24.3638 33.8871 20.1338 32.9994 16.1586 31.087C13.9202 30.0098 11.8016 28.7054 9.80281 27.1738C6.21698 24.4248 3.04417 21.2446 0.284375 17.633C0.148281 17.4549 0.0534896 17.1899 0 16.8378V16.6478C0.0575521 16.2992 0.152344 16.0381 0.284375 15.8648C3.1051 12.1733 6.34562 8.94162 10.0059 6.16965C11.9065 4.73017 13.9611 3.47384 16.1698 2.40066C18.4468 1.29431 20.8118 0.561364 23.2649 0.201833C28.4466 -0.556839 33.5776 0.886364 38.0524 3.47316C39.5576 4.34321 40.9781 5.29485 42.314 6.32808C45.8646 9.07366 48.9805 12.2285 51.6618 15.7927C51.8419 16.0324 51.9546 16.3218 52 16.6611ZM33.4577 9.05199C28.3034 4.13535 20.0342 5.58566 16.574 11.6845C15.7209 13.1876 15.2496 14.9599 15.2395 16.6478C15.2059 22.6289 20.213 27.3952 26.132 27.4043C29.6928 27.4104 33.0525 25.5691 35.0005 22.6035C37.831 18.2932 37.182 12.6046 33.4577 9.05199Z" fill="white"/>
<path d="M23.6387 20.6179C22.506 19.9286 21.7778 18.9618 21.4541 17.7173C21.2909 17.0896 21.2869 16.462 21.4419 15.8343C21.7351 14.642 22.4047 13.6971 23.4508 12.9997C23.979 12.6469 24.5575 12.4086 25.1865 12.2847C25.8345 12.1567 26.4635 12.1618 27.0736 12.2999C28.2578 12.5674 29.1949 13.2052 29.8848 14.2134C30.5683 15.2127 30.8101 16.4945 30.5633 17.6746C30.3899 18.5007 30.0158 19.2245 29.441 19.846C28.9691 20.3572 28.4122 20.7381 27.7703 20.9886C26.4236 21.5147 24.8758 21.3715 23.6387 20.6179Z" fill="white"/>
</svg>
