<svg width="44" height="44" viewBox="0 0 44 44" fill="none" xmlns="http://www.w3.org/2000/svg">
<path d="M42.5324 29.8242C40.8904 34.0697 38.1928 37.4972 34.4397 40.1068C29.3964 43.6144 22.8385 44.8697 16.812 43.3643C12.3851 42.2586 8.64965 40.0189 5.60572 36.6451C1.61984 32.2285 -0.363024 26.3377 0.0548062 20.423C0.451562 14.807 3.00253 9.57223 7.15975 5.76777C13.7534 -0.265109 23.2966 -1.68995 31.3838 2.10718C31.3876 2.10883 31.3909 2.11138 31.3935 2.11459C31.3961 2.11781 31.3979 2.1216 31.3987 2.12565C31.3995 2.12969 31.3993 2.13388 31.3982 2.13784C31.397 2.1418 31.3949 2.14543 31.3921 2.14841C30.7788 2.76966 30.1138 3.43336 29.3973 4.13952C28.6872 4.83865 28.5396 5.43974 28.591 6.42292C28.5913 6.42885 28.5901 6.43476 28.5875 6.44009C28.5849 6.44543 28.581 6.45001 28.5761 6.45341C28.5713 6.45681 28.5656 6.4589 28.5597 6.4595C28.5538 6.4601 28.5478 6.45918 28.5424 6.45683C24.6555 4.82399 20.2985 4.69937 16.3254 6.11138C15.6779 6.34168 15.1043 6.58236 14.6046 6.83342C10.8491 8.72588 8.14141 11.5759 6.4817 15.3834C4.8177 19.1997 4.70225 23.6154 6.08769 27.6049C6.30332 28.2255 6.54125 28.7964 6.80148 29.3175C8.69455 33.1103 11.5641 35.8415 15.4101 37.511C17.3532 38.3546 19.4671 38.7999 21.7517 38.8469C24.1863 38.8973 26.8583 38.3677 29.1362 37.2626C33.0384 35.3708 35.8358 32.4588 37.5285 28.5267C39.2997 24.4107 39.2695 19.6249 37.5248 15.4402C37.5223 15.4341 37.5214 15.4275 37.5221 15.4209C37.5229 15.4144 37.5253 15.4082 37.5292 15.4028C37.5331 15.3975 37.5382 15.3932 37.5442 15.3905C37.5502 15.3877 37.5568 15.3865 37.5633 15.387C38.4182 15.4548 39.1091 15.3201 39.7377 14.687C40.4463 13.9723 41.1402 13.2774 41.8195 12.6024C41.8433 12.5786 41.8623 12.582 41.8763 12.6125C44.4218 18.0214 44.6728 24.2907 42.5324 29.8242Z" fill="white"/>
<path d="M39.9644 7.33189C41.0468 7.33494 42.111 7.33433 43.1568 7.33005C43.9475 7.3273 44.2371 8.11715 43.691 8.66143C41.9983 10.3499 40.3236 12.0239 38.6669 13.6836C38.502 13.8492 38.2989 13.9316 38.0576 13.931C36.5072 13.9292 34.93 13.9289 33.3258 13.9301C33.3127 13.9301 33.2997 13.9328 33.2874 13.938C33.2752 13.9432 33.2639 13.9508 33.2544 13.9604C30.0528 17.1619 26.847 20.3674 23.6369 23.5769C22.7225 24.4913 21.2518 24.5179 20.3511 23.5842C19.4403 22.6413 19.5191 21.2357 20.4336 20.3204C23.7817 16.9673 26.9756 13.7737 30.0153 10.7396C30.0385 10.7164 30.0501 10.6883 30.0501 10.6553C30.0538 9.05666 30.0544 7.46078 30.0519 5.86765C30.0519 5.66484 30.1286 5.48677 30.2819 5.33345C31.9746 3.64075 33.6719 1.94346 35.3738 0.2416C35.8878 -0.272441 36.6529 0.0904111 36.652 0.79779C36.6489 1.94866 36.6486 3.02408 36.6511 4.02406C36.6511 4.07721 36.6697 4.08484 36.707 4.04697C37.0029 3.74368 37.3108 3.38724 37.6709 3.17832C38.3099 2.80875 38.9705 2.7498 39.6529 3.00148C41.2087 3.57599 41.6311 5.55794 40.451 6.76287C40.272 6.94551 40.1015 7.11442 39.9397 7.26958C39.8963 7.3105 39.9045 7.33127 39.9644 7.33189Z" fill="white"/>
<path d="M23.9336 33.548C17.2273 34.6723 11.0175 29.8975 10.323 23.1719C9.90331 19.1044 11.6443 15.1341 14.8971 12.6611C18.3149 10.0634 22.8368 9.53099 26.765 11.2939C26.8847 11.3477 27.0038 11.4021 27.1223 11.457C27.1669 11.4778 27.1718 11.5059 27.137 11.5413L23.2061 15.4713C23.181 15.4964 23.1508 15.5062 23.1154 15.5007C21.4837 15.2288 19.9712 15.5135 18.5779 16.3546C15.413 18.266 14.4078 22.4837 16.4667 25.59C18.2828 28.3306 21.8784 29.4219 24.8847 27.9146C27.5163 26.5951 28.976 23.7977 28.483 20.8921C28.4745 20.842 28.4885 20.7987 28.5252 20.762L32.4423 16.8449C32.4649 16.8223 32.4848 16.8247 32.5019 16.8522C32.5654 16.9542 32.6198 17.0562 32.665 17.1582C33.7948 19.689 34.0449 22.5708 33.2551 25.2399C31.9713 29.5795 28.3969 32.8003 23.9336 33.548Z" fill="white"/>
</svg>
