<svg width="160" height="40" viewBox="0 0 160 40" fill="none" xmlns="http://www.w3.org/2000/svg">
<g clip-path="url(#clip0_5_448)">
<path d="M87.8434 6.99898C87.8434 3.72058 89.63 1.35718 93.1159 1.35718C95.9817 1.35718 97.5746 2.97903 97.9641 5.53541L96.0709 5.90618C95.6988 4.12604 94.761 3.15683 93.0289 3.15683C90.8181 3.15683 89.8628 4.74399 89.8628 6.99898C89.8628 9.04365 90.8355 10.5961 93.2595 10.5961C95.5074 10.5961 96.1428 9.5727 96.1428 8.44521V8.30427H93.0115V6.52413H98.0533V12.1486H96.1428V9.69846H96.1079C95.7533 11.1794 94.6565 12.3242 92.5871 12.3242C89.5973 12.3242 87.8456 10.1039 87.8456 7.00115L87.8434 6.99898Z" fill="white"/>
<path d="M99.15 8.10927C99.15 5.30572 100.812 3.64917 103.395 3.64917C105.978 3.64917 107.199 5.23633 107.199 7.50867C107.199 7.84475 107.199 8.17866 107.164 8.61881H101.061C101.237 10.0108 102.051 10.6982 103.413 10.6982C104.775 10.6982 105.234 10.0455 105.482 9.19991L107.145 9.67476C106.72 11.2619 105.589 12.3547 103.393 12.3547C100.845 12.3547 99.1478 10.8391 99.1478 8.10711L99.15 8.10927ZM101.078 7.20945H105.43C105.323 5.92367 104.651 5.25368 103.343 5.25368C102.035 5.25368 101.291 5.87163 101.078 7.20945Z" fill="white"/>
<path d="M110.315 12.1464H108.405V3.86144H110.315V6.13594H110.333C110.705 4.37315 111.767 3.65112 113.164 3.65112C115.163 3.65112 115.923 4.95641 115.923 6.7539V12.1485H114.012V7.24826C114.012 6.24436 113.57 5.36188 112.278 5.36188C111.057 5.36188 110.315 6.06656 110.315 7.24826V12.1485V12.1464Z" fill="white"/>
<path d="M117.483 2.75141V1.34204H119.552V2.75141H117.483ZM117.572 12.1465V3.86156H119.483V12.1465H117.572Z" fill="white"/>
<path d="M126.735 9.87198H126.718C126.346 11.6521 125.284 12.3763 123.887 12.3763C121.887 12.3763 121.128 11.0537 121.128 9.27354V3.86157H123.038V8.76183C123.038 9.76574 123.48 10.6482 124.773 10.6482C125.993 10.6482 126.735 9.94353 126.735 8.76183V3.86157H128.646V12.1465H126.735V9.87198Z" fill="white"/>
<path d="M129.727 9.51861L131.514 9.16519C131.779 10.206 132.31 10.9106 133.638 10.9106C134.645 10.9106 135.141 10.5225 135.159 9.86987C135.159 9.27143 134.734 8.9527 133.072 8.65348C130.824 8.21332 130.03 7.43709 130.03 6.11445C130.03 4.61618 131.126 3.64697 133.302 3.64697C135.478 3.64697 136.506 4.61618 136.858 6.20335L135.035 6.60881C134.787 5.51601 134.29 5.05851 133.3 5.05851C132.397 5.05851 131.921 5.42928 131.921 6.02772C131.921 6.62616 132.256 6.99693 133.938 7.2788C136.255 7.70161 137.034 8.54723 137.034 9.81783C137.034 11.3681 135.955 12.3742 133.603 12.3742C130.931 12.3742 130.03 11.1405 129.727 9.51861Z" fill="white"/>
<path d="M87.8434 19.8481C87.8434 16.6932 89.9672 14.3667 93.2748 14.3667C96.5823 14.3667 98.7235 16.6932 98.7235 19.8481C98.7235 23.0029 96.6889 25.401 93.2748 25.401C89.8606 25.401 87.8434 23.0202 87.8434 19.8481ZM96.7063 19.8307C96.7063 17.8034 95.503 16.1815 93.2748 16.1815C91.0465 16.1815 89.8432 17.8034 89.8432 19.8307C89.8432 22.051 91.0291 23.5861 93.2748 23.5861C95.5204 23.5861 96.7063 22.0532 96.7063 19.8307Z" fill="white"/>
<path d="M101.822 25.1713H99.9116V16.8863H101.822V19.1608H101.84C102.212 17.3981 103.274 16.676 104.671 16.676C106.67 16.676 107.43 17.9813 107.43 19.7788V25.1734H105.519V20.2732C105.519 19.2693 105.077 18.3868 103.785 18.3868C102.564 18.3868 101.822 19.0915 101.822 20.2732V25.1734V25.1713Z" fill="white"/>
<path d="M110.863 25.1711H108.953V14.3645H110.863V25.1711Z" fill="white"/>
<path d="M112.491 15.7761V14.3667H114.561V15.7761H112.491ZM112.58 25.1711V16.8862H114.491V25.1711H112.58Z" fill="white"/>
<path d="M118.118 25.1713H116.208V16.8863H118.118V19.1608H118.136C118.508 17.3981 119.57 16.676 120.967 16.676C122.966 16.676 123.726 17.9813 123.726 19.7788V25.1734H121.815V20.2732C121.815 19.2693 121.374 18.3868 120.081 18.3868C118.86 18.3868 118.118 19.0915 118.118 20.2732V25.1734V25.1713Z" fill="white"/>
<path d="M124.842 21.1339C124.842 18.3304 126.505 16.6738 129.088 16.6738C131.671 16.6738 132.891 18.261 132.891 20.5333C132.891 20.8694 132.891 21.2033 132.856 21.6435H126.753C126.929 23.0355 127.743 23.7228 129.105 23.7228C130.467 23.7228 130.926 23.0702 131.174 22.2246L132.837 22.6994C132.413 24.2866 131.281 25.3794 129.085 25.3794C126.537 25.3794 124.84 23.8638 124.84 21.1318L124.842 21.1339ZM126.77 20.2341H131.122C131.016 18.9483 130.343 18.2783 129.035 18.2783C127.728 18.2783 126.983 18.8963 126.77 20.2341Z" fill="white"/>
<path d="M88.2874 27.6191H95.9121V29.5229H90.3045V31.9014H95.4181V33.7705H90.3045V36.2922H95.9295V38.1959H88.2874V27.6191Z" fill="white"/>
<path d="M103.078 35.8519H103.043C102.671 37.5258 101.698 38.4256 100.088 38.4256C97.9292 38.4256 96.8151 36.7691 96.8151 34.0891C96.8151 31.4091 98.001 29.681 100.088 29.7005C101.75 29.6832 102.688 30.5809 103.06 32.2916H103.078V27.3914H104.988V38.1979H103.078V35.8541V35.8519ZM103.078 34.1411V34.0002C103.078 32.413 102.229 31.3918 100.867 31.3918C99.4155 31.3918 98.7083 32.3783 98.7083 34.0891C98.7083 35.7999 99.3806 36.6975 100.867 36.6975C102.229 36.6975 103.078 35.7803 103.078 34.1411Z" fill="white"/>
<path d="M112.119 35.9213H112.102C111.73 37.7014 110.668 38.4256 109.271 38.4256C107.271 38.4256 106.511 37.103 106.511 35.3229V29.9109H108.422V34.8112C108.422 35.8151 108.864 36.6975 110.156 36.6975C111.377 36.6975 112.119 35.9929 112.119 34.8112V29.9109H114.03V38.1958H112.119V35.9213Z" fill="white"/>
<path d="M119.481 31.4266C118.118 31.4266 117.163 32.2722 117.163 34.0523C117.163 35.8325 118.101 36.6781 119.515 36.6781C120.93 36.6781 121.408 35.7978 121.674 34.6161L123.495 34.9869C123.16 37.1031 121.957 38.4236 119.55 38.4236C116.932 38.4236 115.216 36.8906 115.216 34.0697C115.216 31.2488 116.967 29.6985 119.496 29.6985C122.024 29.6985 123.141 30.9322 123.476 33.0658L121.635 33.365C121.387 32.2007 120.769 31.4266 119.476 31.4266H119.481Z" fill="white"/>
<path d="M129.904 36.1166H129.869C129.479 37.5975 128.472 38.3737 127.038 38.3737C125.499 38.3737 124.42 37.5975 124.42 36.0125C124.42 34.4275 125.34 33.4041 127.427 33.4041H129.904V33.0702C129.904 31.9427 129.444 31.3247 128.293 31.3247C127.266 31.3247 126.683 31.7822 126.489 32.9813L124.668 32.7341C124.916 30.8824 126.013 29.7375 128.365 29.7375C130.717 29.7375 131.797 30.9366 131.797 33.0506V38.1981H129.904V36.1187V36.1166ZM129.904 35.0758V34.8113H127.71C126.79 34.8113 126.296 35.1452 126.296 35.7111C126.296 36.277 126.668 36.8212 127.747 36.8212C129.057 36.8212 129.906 36.0819 129.906 35.0758H129.904Z" fill="white"/>
<path d="M133.921 31.5155H132.789V29.911H133.921V27.708H135.814V29.911H138.273V31.5155H135.814V35.3576C135.814 36.1685 136.131 36.574 136.963 36.574C137.387 36.574 137.776 36.4678 138.149 36.381L138.379 38.1265C137.779 38.3195 137.335 38.4257 136.521 38.4257C134.7 38.4257 133.921 37.2267 133.921 35.6763V31.5155Z" fill="white"/>
<path d="M139.476 28.8007V27.3914H141.545V28.8007H139.476ZM139.565 38.1958V29.9109H141.476V38.1958H139.565Z" fill="white"/>
<path d="M142.786 34.035C142.786 31.303 144.483 29.6985 147.048 29.6985C149.614 29.6985 151.294 31.303 151.294 34.035C151.294 36.767 149.684 38.4236 147.048 38.4236C144.413 38.4236 142.786 36.7497 142.786 34.035ZM144.696 34.0177C144.696 35.6222 145.527 36.6803 147.031 36.6803C148.535 36.6803 149.401 35.6222 149.401 34.0177C149.401 32.4131 148.517 31.4266 147.048 31.4266C145.58 31.4266 144.696 32.4305 144.696 34.0177Z" fill="white"/>
<path d="M154.392 38.1959H152.482V29.911H154.392V32.1855H154.41C154.782 30.4227 155.844 29.7007 157.241 29.7007C159.241 29.7007 160 31.006 160 32.8035V38.1981H158.089V33.2978C158.089 32.2939 157.648 31.4114 156.355 31.4114C155.134 31.4114 154.392 32.1161 154.392 33.2978V38.1981V38.1959Z" fill="white"/>
<path d="M42.5019 39.7008H38.0323V0L39.1726 0.00867303C50.1506 0.0910668 59.0809 9.06114 59.0809 20C59.0809 29.6856 52.1503 37.9618 42.602 39.6813L42.5019 39.6986V39.7008ZM40.2932 37.448H42.2973C50.7163 35.8847 56.8179 28.5624 56.8179 20.0022C56.8179 10.6765 49.5043 2.96618 40.2932 2.30919V37.448Z" fill="white"/>
<path d="M20.0715 40.0003C9.00434 40.0003 0 31.0281 0 20.0003C0 8.97255 9.00434 0.00463867 20.0715 0.00463867H21.2031V20.0003C21.2031 26.3164 24.615 32.2054 30.1095 35.3689L31.8024 36.3425L30.1117 37.3182C27.0739 39.0701 23.6032 39.9981 20.0737 39.9981L20.0715 40.0003ZM18.94 2.29432C9.64626 2.87758 2.26088 10.5966 2.26088 20.0003C2.26088 29.404 10.2512 37.7475 20.0715 37.7475C22.5652 37.7475 25.0263 37.2271 27.285 36.2297C22.0931 32.496 18.9422 26.4465 18.9422 20.0003V2.29432H18.94Z" fill="white"/>
<path d="M29.5437 37.6475L28.9779 37.3223C22.7872 33.7577 18.94 27.1206 18.94 20.0022V18.8748H40.1431V20.0022C40.1431 27.1185 36.2981 33.7555 30.1095 37.3223L29.5437 37.6475ZM21.2379 21.1276C21.6034 26.7932 24.6999 31.997 29.5437 35.0304C34.3832 31.9949 37.4796 26.7911 37.8452 21.1276H21.2379Z" fill="white"/>
<path d="M39.0115 40.0001C35.4777 40.0001 32.0069 39.0742 28.9758 37.3201L27.2872 36.3444L28.9758 35.3708C34.1394 32.3938 37.4644 27.01 37.843 21.1276H18.9378V20.0001C18.94 8.97447 27.9443 0.00439453 39.0115 0.00439453C39.0899 0.00439453 39.1725 0.00439453 39.2509 0.0108993L40.2932 0.0932931V37.4459H42.3996L42.5976 39.6813C41.4073 39.8916 40.2018 40.0001 39.0115 40.0001ZM31.8002 36.2295C33.7586 37.0946 35.8737 37.602 38.0323 37.7191V28.9051C36.5918 31.7824 34.4658 34.3106 31.8002 36.2295ZM21.2378 18.8747H38.0323V2.2854C29.041 2.77326 21.8036 9.93718 21.2378 18.8747Z" fill="white"/>
<path d="M79.1655 39.7008H42.3996L42.1994 37.4654C50.6706 35.9389 56.8179 28.595 56.8179 20.0022C56.8179 10.2949 48.895 2.33744 39.1552 2.26372L38.0323 2.25504V0.00873104L39.1639 0.00439453H79.1677L62.4211 19.8526L79.1677 39.7008H79.1655ZM48.8493 37.448H74.3086L59.4617 19.8548L74.3108 2.25938H48.24C54.6701 5.60067 59.0787 12.3158 59.0787 20.0022C59.0787 27.6887 55.027 33.9918 48.8493 37.448Z" fill="white"/>
</g>
<defs>
<clipPath id="clip0_5_448">
<rect width="160" height="40" fill="white"/>
</clipPath>
</defs>
</svg>
