<svg width="30" height="30" viewBox="0 0 30 30" fill="none" xmlns="http://www.w3.org/2000/svg">
<path d="M30 4.94292V25.0675C29.932 25.9542 29.601 26.6898 29.0068 27.2742C28.367 27.9035 27.5314 28.2392 26.6344 28.2392C18.9527 28.2361 11.3301 28.2367 3.76641 28.241C3.31289 28.2414 2.97637 28.223 2.75684 28.1859C1.2123 27.9251 0.101367 26.622 0 25.057V4.93472C0.0605469 4.06519 0.385352 3.33589 0.974414 2.74683C1.62559 2.09565 2.43555 1.77007 3.4043 1.77007C11.3043 1.76968 19.0598 1.76968 26.6707 1.77007C27.5291 1.77007 28.3342 2.09702 28.9576 2.6853C29.5826 3.27437 29.9301 4.0269 30 4.94292ZM2.40762 2.95542C1.56563 3.32456 1.0002 4.14897 0.996094 5.08062C0.990625 6.25991 0.989648 7.46147 0.993164 8.6853C0.993164 8.69152 0.995695 8.69748 1.0002 8.70188C1.00471 8.70627 1.01082 8.70874 1.01719 8.70874L28.9881 8.70815C28.9941 8.70815 29 8.70575 29.0042 8.70146C29.0085 8.69718 29.0109 8.69136 29.0109 8.6853C29.0039 7.68686 29.0045 6.66968 29.0127 5.63374C29.0166 5.10679 28.9885 4.73179 28.9283 4.50874C28.8096 4.06968 28.5955 3.7064 28.2861 3.4189C27.8119 2.97866 27.2518 2.75855 26.6057 2.75855C18.9061 2.75855 11.2373 2.75815 3.59941 2.75737C3.1875 2.75737 2.79199 2.78667 2.40762 2.95542ZM2.25117 26.9748C2.60195 27.1556 2.98008 27.246 3.38555 27.246C11.0598 27.246 18.7475 27.2462 26.4486 27.2466C26.8377 27.2466 27.2385 27.2121 27.5883 27.0527C28.4947 26.6402 29.008 25.8275 29.008 24.8285C29.0084 19.8464 29.0082 14.8144 29.0074 9.73237C29.0074 9.70972 28.9961 9.69839 28.9734 9.69839H1.02539C1.00273 9.69839 0.991406 9.70972 0.991406 9.73237C0.992578 14.6437 0.991797 19.5519 0.989062 24.457C0.988672 24.948 1.01699 25.2982 1.07402 25.5076C1.2457 26.1386 1.67109 26.6753 2.25117 26.9748Z" fill="white"/>
<path d="M5.20894 5.74692C5.20894 6.16122 5.04436 6.55855 4.7514 6.8515C4.45845 7.14445 4.06112 7.30903 3.64683 7.30903C3.23253 7.30903 2.8352 7.14445 2.54225 6.8515C2.2493 6.55855 2.08472 6.16122 2.08472 5.74692C2.08472 5.33263 2.2493 4.9353 2.54225 4.64235C2.8352 4.34939 3.23253 4.18481 3.64683 4.18481C4.06112 4.18481 4.45845 4.34939 4.7514 4.64235C5.04436 4.9353 5.20894 5.33263 5.20894 5.74692ZM4.21577 5.74751C4.21577 5.59662 4.15583 5.4519 4.04913 5.3452C3.94243 5.23851 3.79772 5.17856 3.64683 5.17856C3.49593 5.17856 3.35122 5.23851 3.24452 5.3452C3.13782 5.4519 3.07788 5.59662 3.07788 5.74751C3.07788 5.8984 3.13782 6.04312 3.24452 6.14982C3.35122 6.25651 3.49593 6.31646 3.64683 6.31646C3.79772 6.31646 3.94243 6.25651 4.04913 6.14982C4.15583 6.04312 4.21577 5.8984 4.21577 5.74751Z" fill="white"/>
<path d="M10.0249 5.76206C10.0249 5.9672 9.98445 6.17033 9.90594 6.35985C9.82744 6.54938 9.71238 6.72158 9.56732 6.86664C9.42227 7.01169 9.25006 7.12676 9.06054 7.20526C8.87101 7.28376 8.66788 7.32417 8.46274 7.32417C8.04845 7.32417 7.65112 7.15959 7.35817 6.86664C7.06521 6.57369 6.90063 6.17636 6.90063 5.76206C6.90063 5.34776 7.06521 4.95043 7.35817 4.65748C7.65112 4.36453 8.04845 4.19995 8.46274 4.19995C8.87704 4.19995 9.27437 4.36453 9.56732 4.65748C9.86027 4.95043 10.0249 5.34776 10.0249 5.76206ZM9.03228 5.76206C9.03228 5.61101 8.97227 5.46615 8.86546 5.35934C8.75866 5.25253 8.61379 5.19253 8.46274 5.19253C8.31169 5.19253 8.16683 5.25253 8.06002 5.35934C7.95322 5.46615 7.89321 5.61101 7.89321 5.76206C7.89321 5.91311 7.95322 6.05797 8.06002 6.16478C8.16683 6.27159 8.31169 6.33159 8.46274 6.33159C8.61379 6.33159 8.75866 6.27159 8.86546 6.16478C8.97227 6.05797 9.03228 5.91311 9.03228 5.76206Z" fill="white"/>
<path d="M14.84 5.77732C14.84 5.98246 14.7996 6.18559 14.7211 6.37511C14.6426 6.56464 14.5276 6.73684 14.3825 6.8819C14.2375 7.02695 14.0652 7.14202 13.8757 7.22052C13.6862 7.29902 13.4831 7.33943 13.2779 7.33943C12.8636 7.33943 12.4663 7.17485 12.1734 6.8819C11.8804 6.58895 11.7158 6.19162 11.7158 5.77732C11.7158 5.36302 11.8804 4.96569 12.1734 4.67274C12.4663 4.37979 12.8636 4.21521 13.2779 4.21521C13.6922 4.21521 14.0896 4.37979 14.3825 4.67274C14.6755 4.96569 14.84 5.36302 14.84 5.77732ZM13.8475 5.77732C13.8475 5.7026 13.8327 5.62862 13.8042 5.55959C13.7756 5.49057 13.7337 5.42785 13.6808 5.37501C13.628 5.32218 13.5653 5.28027 13.4962 5.25168C13.4272 5.22309 13.3532 5.20837 13.2785 5.20837C13.1276 5.20837 12.9829 5.26832 12.8762 5.37501C12.7695 5.48171 12.7096 5.62643 12.7096 5.77732C12.7096 5.92821 12.7695 6.07293 12.8762 6.17962C12.9829 6.28632 13.1276 6.34626 13.2785 6.34626C13.3532 6.34626 13.4272 6.33155 13.4962 6.30296C13.5653 6.27436 13.628 6.23246 13.6808 6.17962C13.7337 6.12679 13.7756 6.06407 13.8042 5.99505C13.8327 5.92602 13.8475 5.85203 13.8475 5.77732Z" fill="white"/>
<path d="M15.9676 12.6147L15.9596 12.613C15.6942 12.557 15.4338 12.7268 15.3779 12.9922L13.3802 22.4719C13.3243 22.7372 13.4941 22.9977 13.7594 23.0536L13.7674 23.0553C14.0328 23.1112 14.2932 22.9414 14.3491 22.6761L16.3468 13.1964C16.4027 12.931 16.233 12.6706 15.9676 12.6147Z" fill="white"/>
<path d="M9.4125 17.8142C10.3383 18.6017 11.2443 19.3728 12.1307 20.1275C12.498 20.4404 12.3088 21.0187 11.8213 21.0181C11.6742 21.0181 11.5512 20.9361 11.4428 20.8441C10.4025 19.9566 9.38516 19.0898 8.39062 18.2437C8.0543 17.9578 8.06777 17.6267 8.4 17.3449C9.40781 16.4906 10.4166 15.6302 11.4264 14.7638C11.5342 14.6713 11.6355 14.6142 11.7305 14.5927C12.1225 14.5025 12.4512 14.9115 12.2807 15.2724C12.2443 15.3502 12.185 15.424 12.1025 15.4939C11.1803 16.2791 10.2834 17.0431 9.41191 17.7861C9.40991 17.7878 9.40832 17.79 9.40724 17.7924C9.40617 17.7948 9.40564 17.7974 9.4057 17.8001C9.40575 17.8028 9.40639 17.8054 9.40757 17.8079C9.40874 17.8103 9.41042 17.8125 9.4125 17.8142Z" fill="white"/>
<path d="M20.5858 17.8149C20.5881 17.8129 20.5899 17.8105 20.5912 17.8078C20.5925 17.805 20.5931 17.802 20.5931 17.799C20.5931 17.7959 20.5925 17.7929 20.5912 17.7901C20.5899 17.7873 20.5881 17.7847 20.5858 17.7827C19.6963 17.0256 18.81 16.2715 17.9268 15.5204C17.7416 15.3633 17.6245 15.1817 17.693 14.9426C17.7926 14.5916 18.2133 14.4627 18.4952 14.703C19.5713 15.6198 20.6205 16.5118 21.6428 17.3789C21.7268 17.45 21.787 17.5346 21.8233 17.6327C21.9264 17.9092 21.7746 18.1084 21.5696 18.2819C20.6227 19.0819 19.6405 19.9182 18.6229 20.7909C18.5088 20.8889 18.4133 20.9532 18.3364 20.9836C18.058 21.0944 17.7551 20.9192 17.6883 20.6385C17.6368 20.4247 17.7358 20.2389 17.8957 20.1036C18.8157 19.3231 19.7123 18.5602 20.5858 17.8149Z" fill="white"/>
</svg>
