<svg width="30" height="30" viewBox="0 0 30 30" fill="none" xmlns="http://www.w3.org/2000/svg">
<g clip-path="url(#clip0_19_1057)">
<path d="M11.533 0H11.8224C11.9076 0.0140625 11.9918 0.0296875 12.075 0.046875C12.7072 0.175781 13.1865 0.67207 13.3763 1.27148C13.4295 1.44023 13.4552 1.76934 13.4537 2.25879C13.4439 5.7252 13.4427 9.33262 13.4502 13.0811C13.4509 13.3596 13.4273 13.5959 13.3793 13.79C13.2076 14.4896 12.655 15.0545 11.9625 15.249C11.3851 15.4107 10.8287 15.3295 10.2931 15.0053C10.2381 14.9719 10.1894 14.925 10.1355 14.8904C10.1175 14.8787 10.0988 14.8777 10.0793 14.8875C9.92575 14.9645 9.76716 15.0213 9.60349 15.058C9.582 15.0627 9.57673 15.0746 9.58767 15.0938C10.1092 15.9801 10.4039 16.9354 10.4718 17.9596C10.473 17.9807 10.4842 17.9912 10.5052 17.9912L17.3408 17.9906C17.3525 17.9906 17.3588 17.9848 17.3595 17.973C17.4291 16.95 17.7259 15.9943 18.2502 15.1061C18.2517 15.1033 18.2526 15.1002 18.2527 15.0971C18.2528 15.0939 18.2521 15.0908 18.2507 15.088C18.2493 15.0851 18.2473 15.0827 18.2447 15.0808C18.2422 15.079 18.2392 15.0778 18.2361 15.0773C18.0377 15.0445 17.8424 14.9803 17.6502 14.8846C17.6425 14.8807 17.6339 14.8791 17.6254 14.8799C17.6169 14.8807 17.6088 14.884 17.6021 14.8893C16.4496 15.7699 14.789 15.2625 14.3724 13.8545C14.3189 13.6736 14.2922 13.433 14.2922 13.1326C14.2914 9.29121 14.2925 5.50703 14.2957 1.78008C14.2963 0.829102 14.9736 0.113086 15.9146 0H16.2023C17.1961 0.143555 17.8494 0.868359 17.8166 1.8791C17.8165 1.88174 17.8171 1.88435 17.8182 1.88675C17.8192 1.88915 17.8209 1.89127 17.8229 1.89296C17.8249 1.89465 17.8273 1.89586 17.8299 1.8965C17.8324 1.89715 17.8351 1.89721 17.8377 1.89668C18.7494 1.71914 19.7033 2.0332 20.3062 2.73867C20.8625 3.38945 21.0566 4.15273 20.8886 5.02852C20.8843 5.05117 20.8918 5.06895 20.9109 5.08184C20.959 5.11465 21.0205 5.13574 21.0674 5.16973C21.4482 5.44473 21.7013 5.75723 21.8267 6.10723C22.0908 6.84551 21.9554 7.52793 21.4207 8.15449C21.4043 8.17363 21.4052 8.1918 21.4236 8.20898C22.7478 9.45352 22.4004 11.6848 20.7445 12.45C20.7082 12.4668 20.6728 12.4848 20.6384 12.5039C20.6236 12.5121 20.616 12.525 20.6156 12.5426C20.6138 12.8514 20.6379 13.1918 20.567 13.493C20.3951 14.2238 19.9453 14.7283 19.2175 15.0064C19.1941 15.0154 19.175 15.0301 19.1601 15.0504C18.4402 16.0496 18.0789 17.1844 18.0761 18.4547C18.0738 19.6148 18.0752 20.934 18.0802 22.4121C18.081 22.602 18.0652 22.776 18.0328 22.9342C17.9156 23.5031 17.4756 23.9672 16.9254 24.1506C16.7277 24.2166 16.4021 24.2447 15.9486 24.235C15.4552 24.2248 14.9156 24.2242 14.3297 24.2332C14.305 24.2336 14.2931 24.2459 14.2939 24.2701C14.3025 24.7096 14.3035 25.1656 14.2968 25.6383C14.289 26.2105 14.3019 26.6008 14.3355 26.809C14.7164 29.1604 17.5845 30.099 19.2597 28.401C19.8144 27.8385 20.0929 27.1346 20.0953 26.2893C20.0984 25.1689 20.097 23.9992 20.0912 22.7801C20.0888 22.2758 20.1152 21.8961 20.1703 21.641C20.4902 20.1609 21.6633 19.1133 23.1691 18.907C23.1914 18.9039 23.2039 18.891 23.2066 18.8684C23.3379 17.683 24.2642 16.8574 25.4537 16.8592C26.1287 16.86 26.8408 16.8604 27.59 16.8604C27.9697 16.8604 27.9949 17.1879 27.9797 17.4902C27.9738 17.6066 27.9738 17.7232 27.9797 17.84C27.9808 17.8607 27.992 17.8711 28.0131 17.8711C28.3244 17.8715 28.6299 17.8711 28.9295 17.8699C29.4539 17.8682 29.458 18.6064 28.9248 18.6053C28.6138 18.6049 28.3088 18.6043 28.0095 18.6035C27.9888 18.6035 27.9785 18.6141 27.9785 18.6352V19.8609C27.9785 19.8655 27.9794 19.8701 27.9812 19.8743C27.9829 19.8785 27.9855 19.8824 27.9888 19.8856C27.9921 19.8888 27.996 19.8913 28.0002 19.893C28.0045 19.8947 28.0091 19.8956 28.0136 19.8955C28.3277 19.8924 28.6334 19.8922 28.9306 19.8949C29.3138 19.8979 29.489 20.3783 29.1486 20.5734C29.0759 20.6152 28.9808 20.6348 28.8633 20.632C28.5664 20.6258 28.2828 20.6248 28.0125 20.6291C27.9906 20.6295 27.9795 20.6406 27.9791 20.6625C27.9763 20.8316 27.9769 21.0051 27.9808 21.1828C27.9861 21.4336 27.8718 21.6393 27.5953 21.6393C26.7996 21.6404 26.0765 21.64 25.4261 21.6381C24.2578 21.6346 23.3531 20.8143 23.2095 19.6711C23.209 19.6667 23.2075 19.6625 23.2053 19.6587C23.203 19.6549 23.2001 19.6515 23.1965 19.6489C23.1929 19.6463 23.1889 19.6444 23.1846 19.6434C23.1803 19.6424 23.1758 19.6422 23.1715 19.643C22.3246 19.7914 21.6808 20.2148 21.2402 20.9133C20.9302 21.4055 20.8295 21.8959 20.8271 22.4965C20.8232 23.5996 20.8244 24.7563 20.8306 25.9664C20.833 26.4363 20.8088 26.8027 20.758 27.0656C20.4445 28.6969 19.0705 29.8676 17.4129 30H16.974C15.3158 29.8664 13.9863 28.7162 13.6429 27.0943C13.582 26.8072 13.555 26.4254 13.5621 25.9488C13.5699 25.4195 13.5701 24.8516 13.5627 24.2449C13.5627 24.2409 13.5611 24.237 13.5582 24.2341C13.5553 24.2313 13.5515 24.2297 13.5474 24.2297C12.9123 24.2273 12.264 24.2289 11.6027 24.2344C11.3023 24.2367 11.0572 24.2041 10.8674 24.1365C10.1343 23.8746 9.75056 23.2236 9.7529 22.4631C9.75759 21.0357 9.75778 19.6635 9.75349 18.3463C9.74919 17.1771 9.40134 16.0881 8.70993 15.0791C8.69633 15.0591 8.67564 15.0449 8.65192 15.0393C7.86267 14.8582 7.30485 14.1814 7.1531 13.418C7.09802 13.1408 7.12263 12.8355 7.1197 12.5426C7.11931 12.5195 7.10856 12.5037 7.08747 12.4951C5.36013 11.7779 4.95935 9.4916 6.31814 8.20723C6.32549 8.20029 6.3298 8.19069 6.33013 8.18051C6.33046 8.17032 6.32678 8.16035 6.31989 8.15273C5.42927 7.20234 5.69763 5.69121 6.82673 5.08301C6.84704 5.07207 6.85485 5.05508 6.85017 5.03203C6.45935 3.17754 8.00446 1.54863 9.88181 1.89258C9.90485 1.89687 9.91638 1.8873 9.91638 1.86387C9.90349 0.873633 10.5521 0.117188 11.533 0ZM10.5217 12.8889C10.6435 12.6639 10.9453 12.634 11.1111 12.8227C11.1892 12.9109 11.2217 13.0273 11.2084 13.1719C11.1634 13.6527 11.0025 14.0539 10.7256 14.3754C10.723 14.3784 10.7212 14.3819 10.7202 14.3857C10.7191 14.3894 10.719 14.3934 10.7196 14.3972C10.7203 14.401 10.7218 14.4046 10.7241 14.4077C10.7263 14.4109 10.7292 14.4134 10.7326 14.4152C11.6525 14.9156 12.7148 14.3033 12.7142 13.2451C12.7138 9.34863 12.714 5.5373 12.7148 1.81113C12.7148 1.68418 12.6968 1.56406 12.6609 1.45078C12.3896 0.6 11.2629 0.4875 10.8058 1.2252C10.6207 1.52363 10.5986 1.84434 10.7396 2.1873C10.783 2.29277 10.9359 2.3332 11.0062 2.43281C11.2593 2.79434 10.8205 3.18984 10.4578 2.91797C10.3312 2.82305 10.2009 2.75195 10.067 2.70469C9.04099 2.34199 7.96169 2.82598 7.6113 3.86602C7.45544 4.32949 7.48649 4.92422 7.75837 5.3666C7.99978 5.76094 7.47712 6.15176 7.14255 5.77207C7.12771 5.75527 7.1111 5.75332 7.09274 5.76621C6.39196 6.24785 6.32282 7.14727 6.93396 7.73496C6.95153 7.75176 6.97126 7.75508 6.99314 7.74492C7.32419 7.59375 7.66169 7.51055 8.04372 7.4959C8.59274 7.47363 8.61501 8.2166 8.0531 8.23184C6.62517 8.27168 5.74099 9.84258 6.51149 11.0818C6.8197 11.5775 7.40798 11.9672 8.02321 11.9631C8.67771 11.9584 8.57985 12.8396 7.89958 12.6867C7.87146 12.6801 7.85661 12.6912 7.85505 12.7201C7.83747 13.0025 7.85212 13.2293 7.89899 13.4004C8.26755 14.7451 10.19 14.6725 10.4549 13.2896C10.4806 13.1549 10.4554 13.0107 10.5217 12.8889ZM19.4847 12.0035C19.5195 11.9848 19.5568 11.9748 19.5967 11.9736C20.2842 11.9572 20.8152 11.6783 21.1898 11.1369C21.481 10.715 21.5842 10.1227 21.4465 9.63457C21.2472 8.93105 20.7898 8.47871 20.0742 8.27754C19.9621 8.24629 19.8433 8.23164 19.7179 8.23359C19.115 8.24356 19.1232 7.45723 19.7302 7.4959C20.1107 7.52012 20.4468 7.60312 20.7386 7.74492C20.7491 7.75008 20.7609 7.75189 20.7724 7.75011C20.784 7.74832 20.7947 7.74304 20.8031 7.73496C21.4201 7.14551 21.341 6.2373 20.6379 5.7627C20.6207 5.75137 20.6056 5.75352 20.5927 5.76914C20.2775 6.14941 19.7472 5.79258 19.9804 5.36074C20.4791 4.43906 20.1674 3.33457 19.2627 2.81953C18.6386 2.46445 17.8529 2.50547 17.274 2.9209C16.8972 3.19102 16.4759 2.78555 16.742 2.41465C16.8199 2.30566 16.957 2.29922 17.0103 2.15742C17.2429 1.53398 16.9043 0.895898 16.2609 0.756445C15.6 0.612305 15.0205 1.13203 15.0211 1.8041C15.0254 5.66035 15.0248 9.36699 15.0193 12.924C15.0189 13.3178 15.0437 13.5811 15.0937 13.7139C15.3914 14.4996 16.258 14.8318 16.9945 14.4176C17.0187 14.4043 17.0218 14.3871 17.0039 14.366C16.7527 14.0695 16.598 13.7111 16.5398 13.2908C16.5211 13.1549 16.5258 13.0385 16.5539 12.9416C16.6623 12.5654 17.2429 12.6445 17.2588 13.0576C17.2783 13.5588 17.4929 13.9359 17.9027 14.1891C18.2853 14.4252 18.8039 14.434 19.1924 14.2166C19.6013 13.9881 19.8293 13.6412 19.8761 13.176C19.8894 13.0436 19.8922 12.8943 19.8843 12.7283C19.8832 12.6979 19.8675 12.6846 19.8375 12.6885C19.7373 12.7008 19.6259 12.7119 19.5304 12.682C19.2011 12.5789 19.1853 12.1635 19.4847 12.0035ZM27.2461 20.8887V17.6145C27.2461 17.6082 27.2436 17.6023 27.2392 17.5979C27.2348 17.5935 27.2288 17.591 27.2226 17.591H25.4215C25.0261 17.591 24.647 17.7445 24.3674 18.0178C24.0879 18.2911 23.9308 18.6618 23.9308 19.0482V19.4549C23.9308 19.8414 24.0879 20.212 24.3674 20.4853C24.647 20.7586 25.0261 20.9121 25.4215 20.9121H27.2226C27.2288 20.9121 27.2348 20.9096 27.2392 20.9052C27.2436 20.9008 27.2461 20.8949 27.2461 20.8887ZM16.4062 22.3828C15.8191 22.3893 15.8273 21.6381 16.3705 21.6434C16.6877 21.6465 17.0002 21.6471 17.308 21.6451C17.3326 21.6451 17.3449 21.6328 17.3449 21.6082V20.5395C17.3449 20.5346 17.3429 20.53 17.3394 20.5266C17.3359 20.5232 17.3311 20.5213 17.3261 20.5213C15.8949 20.524 14.4543 20.5246 13.0043 20.523C12.4541 20.5225 12.457 19.7883 12.9937 19.7889C14.434 19.7896 15.8754 19.7898 17.3179 19.7895C17.3251 19.7895 17.3319 19.7867 17.337 19.7817C17.3421 19.7768 17.3449 19.7701 17.3449 19.7631L17.3443 18.7383C17.3443 18.7297 17.3402 18.7254 17.332 18.7254H10.5222C10.4992 18.7254 10.4877 18.7369 10.4877 18.76L10.4883 19.773C10.4882 19.7768 10.4897 19.7805 10.4923 19.7832C10.495 19.7859 10.4985 19.7875 10.5023 19.7877C10.8289 19.7924 11.172 19.7918 11.5318 19.7859C11.6166 19.7848 11.692 19.7979 11.758 19.8252C12.0269 19.9359 12.048 20.2945 11.8166 20.4568C11.7517 20.5021 11.6662 20.5248 11.5599 20.5248C11.2334 20.5244 10.8875 20.5227 10.5222 20.5195C10.4992 20.5195 10.4877 20.5311 10.4877 20.5541V21.6082C10.4877 21.6332 10.5004 21.6457 10.5258 21.6457C11.8972 21.6457 13.3787 21.6457 14.9701 21.6457C15.4775 21.6457 15.4828 22.3805 14.9349 22.3805C13.5845 22.3805 12.1134 22.3803 10.5217 22.3799C10.5009 22.3799 10.4898 22.3902 10.4883 22.4109C10.4578 22.8305 10.6066 23.1475 10.9347 23.3619C11.0689 23.4498 11.2523 23.5008 11.4111 23.5002C13.1201 23.4955 14.7611 23.4959 16.3342 23.5014C16.9717 23.5037 17.3941 23.059 17.342 22.4121C17.3404 22.391 17.3289 22.3803 17.3074 22.3799C17.0269 22.3783 16.7265 22.3793 16.4062 22.3828Z" fill="white"/>
<path d="M4.51604 4.41966L2.19383 2.67609C2.03494 2.55679 1.80942 2.58889 1.69012 2.74778L1.68308 2.75715C1.56378 2.91605 1.59588 3.14156 1.75477 3.26086L4.07698 5.00443C4.23587 5.12373 4.46139 5.09163 4.58069 4.93274L4.58772 4.92337C4.70702 4.76448 4.67493 4.53896 4.51604 4.41966Z" fill="white"/>
<path d="M25.6394 2.67727L23.3172 4.42083C23.1583 4.54013 23.1263 4.76565 23.2456 4.92454L23.2526 4.93391C23.3719 5.0928 23.5974 5.1249 23.7563 5.0056L26.0785 3.26204C26.2374 3.14274 26.2695 2.91722 26.1502 2.75833L26.1432 2.74895C26.0239 2.59006 25.7983 2.55797 25.6394 2.67727Z" fill="white"/>
<path d="M10.667 5.48557C10.6631 5.62619 10.627 5.77385 10.5586 5.92853C10.387 6.31818 9.84321 6.24553 9.83969 5.82131C9.83852 5.68361 9.9393 5.58225 9.93813 5.44631C9.93618 5.18537 9.81313 5.02131 9.56899 4.95412C9.43832 4.91779 9.31411 4.98869 9.19516 4.95881C8.73286 4.84279 8.81489 4.27092 9.28481 4.22053C9.76137 4.16935 10.1444 4.32834 10.4338 4.69748C10.4405 4.70599 10.4489 4.71308 10.4584 4.71831C10.468 4.72355 10.4786 4.72682 10.4895 4.72795C10.643 4.74436 10.776 4.67521 10.8873 4.57268C11.1745 4.30783 11.6028 4.6342 11.4622 4.98107C11.359 5.23596 10.9459 5.41291 10.6963 5.45217C10.6776 5.45529 10.6678 5.46643 10.667 5.48557Z" fill="white"/>
<path d="M17.3836 6.3211C17.0711 6.26173 16.8373 6.1377 16.6823 5.94903C16.4567 5.67423 16.6893 5.29337 17.0397 5.36134C17.1615 5.38477 17.2307 5.4838 17.3338 5.54181C17.41 5.58477 17.4942 5.60372 17.5864 5.59864C17.6114 5.59747 17.6319 5.58692 17.6479 5.567C17.9744 5.16505 18.3885 5.0127 18.8901 5.10997C19.3735 5.20372 19.2405 5.9297 18.716 5.82071C18.2948 5.73282 18.0311 6.1588 18.2069 6.52501C18.4242 6.97852 17.7463 7.30313 17.5254 6.79864C17.4602 6.65059 17.4239 6.50391 17.4164 6.3586C17.4159 6.34958 17.4124 6.34099 17.4065 6.3342C17.4005 6.3274 17.3925 6.32279 17.3836 6.3211Z" fill="white"/>
<path d="M3.43127 7.13581L1.09104 7.13172C0.894936 7.13138 0.735684 7.29008 0.735342 7.48618L0.735307 7.5061C0.734965 7.70221 0.893661 7.86146 1.08977 7.8618L3.43 7.86588C3.6261 7.86623 3.78535 7.70753 3.78569 7.51143L3.78573 7.49151C3.78607 7.2954 3.62737 7.13615 3.43127 7.13581Z" fill="white"/>
<path d="M26.7428 7.13581L24.4026 7.13172C24.2065 7.13138 24.0472 7.29008 24.0469 7.48618L24.0468 7.5061C24.0465 7.70221 24.2052 7.86146 24.4013 7.8618L26.7415 7.86588C26.9376 7.86623 27.0969 7.70753 27.0972 7.51143L27.0973 7.49151C27.0976 7.2954 26.9389 7.13615 26.7428 7.13581Z" fill="white"/>
<path d="M10.6155 9.4951C10.8516 9.52088 11.3286 9.67029 11.427 9.93279C11.526 10.1965 11.3057 10.4554 11.0286 10.4168C10.9196 10.4015 10.8381 10.3224 10.7403 10.2803C10.4887 10.172 10.251 10.1969 10.0272 10.3547C9.83851 10.4871 9.70433 10.7426 9.73773 10.9845C9.81332 11.5295 9.02172 11.6127 9.00238 11.0326C8.98187 10.4349 9.26605 9.91639 9.78871 9.64099C9.79626 9.63714 9.80293 9.6317 9.80828 9.62504C9.81363 9.61838 9.81755 9.61064 9.81976 9.60232C9.88304 9.3617 9.83812 9.141 9.685 8.94021C9.39613 8.56053 9.96215 8.10701 10.2821 8.52185C10.4883 8.78904 10.5868 9.09881 10.5774 9.45115C10.5766 9.47771 10.5893 9.49236 10.6155 9.4951Z" fill="white"/>
<path d="M17.1598 9.45348C17.1446 9.13786 17.2336 8.83786 17.427 8.55348C17.7428 8.08942 18.3557 8.53942 18.0416 8.95661C17.8971 9.1484 17.8545 9.36032 17.9139 9.59235C17.919 9.61227 17.9303 9.62731 17.9479 9.63747C18.4944 9.957 18.7559 10.4256 18.7324 11.0431C18.7114 11.5945 17.9496 11.5295 17.9994 11.0308C18.0651 10.3851 17.3942 9.99547 16.8574 10.357C16.5826 10.5422 16.2358 10.2884 16.3008 9.97672C16.3635 9.67965 16.8727 9.52438 17.124 9.49567C17.149 9.49293 17.161 9.47887 17.1598 9.45348Z" fill="white"/>
<path d="M4.07647 9.99067L1.74864 11.7385C1.58974 11.8578 1.55765 12.0833 1.67695 12.2422L1.68469 12.2525C1.80399 12.4114 2.02951 12.4435 2.1884 12.3242L4.51623 10.5764C4.67512 10.4571 4.70722 10.2316 4.58792 10.0727L4.58018 10.0624C4.46088 9.90347 4.23536 9.87137 4.07647 9.99067Z" fill="white"/>
<path d="M26.0788 11.7307L23.7479 9.98699C23.5888 9.86797 23.3634 9.90046 23.2443 10.0596L23.2373 10.0689C23.1183 10.228 23.1508 10.4535 23.3099 10.5725L25.6408 12.3162C25.7999 12.4353 26.0253 12.4028 26.1443 12.2437L26.1514 12.2343C26.2704 12.0752 26.2379 11.8497 26.0788 11.7307Z" fill="white"/>
</g>
<defs>
<clipPath id="clip0_19_1057">
<rect width="30" height="30" fill="white"/>
</clipPath>
</defs>
</svg>
