<svg width="30" height="30" viewBox="0 0 30 30" fill="none" xmlns="http://www.w3.org/2000/svg">
<path d="M2.3842 21.6012C2.39748 21.6 2.40412 21.593 2.40412 21.5801C2.40256 16.6961 2.40158 11.6922 2.40119 6.56834C2.4008 6.25819 2.42853 6.01737 2.48439 5.84588C2.70705 5.16034 3.36037 4.63124 4.09807 4.63065C11.4371 4.62831 18.7824 4.62792 26.134 4.62948C27.1031 4.62948 27.8502 5.44686 27.8502 6.38788C27.8502 11.4582 27.8502 16.5297 27.8502 21.6023C27.8502 21.6176 27.8574 21.6267 27.8719 21.6299C28.5559 21.7846 29.0268 22.1773 29.2846 22.8082C29.7024 23.8307 29.0994 24.9592 28.0881 25.2826C27.901 25.3428 27.6553 25.3728 27.351 25.3728C18.9947 25.3724 10.7164 25.3707 2.51603 25.3676C2.07892 25.3676 1.70314 25.2545 1.38869 25.0283C0.559003 24.4324 0.320526 23.284 0.912909 22.4279C1.25861 21.9283 1.74904 21.6527 2.3842 21.6012ZM17.9555 22.6588C17.9795 22.1056 18.382 21.6029 18.9645 21.6029C21.6875 21.6033 24.4078 21.6029 27.1254 21.6017C27.1395 21.6017 27.1465 21.5947 27.1465 21.5807C27.1469 16.6748 27.1471 11.624 27.1471 6.42831C27.1471 5.95604 26.9256 5.58573 26.4803 5.39764C26.3737 5.35272 26.1033 5.33026 25.6694 5.33026C18.6127 5.3326 11.5608 5.3328 4.51349 5.33084C4.12639 5.33084 3.87736 5.35428 3.76642 5.40116C3.36857 5.56874 3.10607 5.93788 3.10607 6.37147C3.10646 11.5191 3.10646 16.5867 3.10607 21.5742C3.10607 21.5814 3.10891 21.5882 3.11397 21.5933C3.11902 21.5983 3.12588 21.6012 3.13303 21.6012C5.56584 21.6051 8.05783 21.6047 10.609 21.6C11.1944 21.5988 11.7059 22.0096 11.7106 22.6242C11.7123 22.858 11.8764 22.9881 12.1002 22.9881C13.9365 22.9873 15.766 22.9871 17.5887 22.9875C17.7885 22.9875 17.9467 22.8592 17.9555 22.6588ZM18.6598 22.6676C18.6463 23.2471 18.1729 23.6918 17.601 23.6906C15.7697 23.6879 13.9672 23.6889 12.1934 23.6935C11.9891 23.6939 11.8229 23.6703 11.6947 23.6226C11.2945 23.4738 11.0133 23.0982 11.0092 22.6535C11.0074 22.4508 10.8557 22.3049 10.6518 22.3049C7.93537 22.306 5.21838 22.306 2.5008 22.3049C1.96877 22.3049 1.53459 22.5961 1.35119 23.0976C1.13029 23.7029 1.46721 24.3814 2.06252 24.5947C2.2008 24.6447 2.35392 24.6697 2.52189 24.6697C10.8953 24.6662 19.2186 24.6662 27.4916 24.6697C28.0266 24.6697 28.469 24.365 28.6477 23.8611C28.7707 23.516 28.7086 23.107 28.4942 22.8094C28.2516 22.4734 27.9178 22.3055 27.4928 22.3055C24.6619 22.3058 21.8319 22.306 19.0026 22.306C18.7981 22.3055 18.6639 22.4678 18.6598 22.6676Z" fill="white"/>
<path d="M24.8438 19.4104V7.75196C24.8438 7.74965 24.8433 7.74737 24.8425 7.74523C24.8416 7.7431 24.8403 7.74116 24.8387 7.73953C24.837 7.7379 24.8351 7.7366 24.833 7.73572C24.8308 7.73484 24.8285 7.73438 24.8262 7.73438C24.5403 7.73321 24.2268 7.73399 23.8858 7.73673C23.3268 7.742 23.3579 7.02423 23.8307 7.03009C24.1577 7.03399 24.4823 7.03321 24.8045 7.02774C25.1227 7.02188 25.3711 7.10802 25.4983 7.40333C25.5295 7.47598 25.5452 7.55489 25.5452 7.64005C25.5479 11.524 25.5477 15.484 25.5446 19.5199C25.5446 19.7883 25.4051 20.035 25.1497 20.117C25.0629 20.1451 24.9338 20.1592 24.7624 20.1592C18.3784 20.1588 11.9942 20.1588 5.60982 20.1592C5.32896 20.1592 5.13716 20.1365 5.03443 20.0912C4.81802 19.9959 4.70982 19.7953 4.70982 19.4895C4.70904 15.3992 4.70923 11.459 4.71041 7.66876C4.71041 7.28028 4.97525 7.03243 5.34146 7.03243C10.4989 7.03009 15.7292 7.03048 21.0323 7.0336C21.137 7.0336 21.2245 7.0838 21.2948 7.18419C21.4624 7.42501 21.2795 7.73438 20.9918 7.73438C15.9645 7.73477 10.7778 7.73458 5.43169 7.7338C5.4188 7.7338 5.41236 7.74044 5.41236 7.75372V19.4285C5.41236 19.4469 5.42134 19.4561 5.43931 19.4561H24.7981C24.8286 19.4561 24.8438 19.4408 24.8438 19.4104Z" fill="white"/>
<path d="M22.5733 7.0354H22.1643C21.9844 7.0354 21.8385 7.18126 21.8385 7.36118V7.40454C21.8385 7.58447 21.9844 7.73032 22.1643 7.73032H22.5733C22.7532 7.73032 22.899 7.58447 22.899 7.40454V7.36118C22.899 7.18126 22.7532 7.0354 22.5733 7.0354Z" fill="white"/>
<path d="M7.71917 10.5786C7.96604 10.2797 8.218 9.96803 8.47503 9.64342C8.79964 9.23385 9.36155 9.68326 9.01175 10.1046C8.77659 10.387 8.53479 10.6876 8.28636 11.0063C8.06077 11.2958 7.76136 11.4452 7.41331 11.2524C7.28675 11.1821 7.14827 11.1065 6.99788 11.0256C6.79456 10.9167 6.68265 10.711 6.8139 10.5001C7.04183 10.135 7.41683 10.4608 7.66292 10.5897C7.68479 10.6014 7.70354 10.5977 7.71917 10.5786Z" fill="white"/>
<path d="M22.2621 10.0601H11.2535C11.061 10.0601 10.9049 10.2161 10.9049 10.4087V10.4146C10.9049 10.6071 11.061 10.7632 11.2535 10.7632H22.2621C22.4547 10.7632 22.6108 10.6071 22.6108 10.4146V10.4087C22.6108 10.2161 22.4547 10.0601 22.2621 10.0601Z" fill="white"/>
<path d="M7.71207 13.7731C7.95504 13.4747 8.21422 13.1532 8.48961 12.8087C8.79254 12.4296 9.35563 12.8614 9.02047 13.2745C8.75094 13.6065 8.48239 13.9381 8.21481 14.2694C8.06246 14.4581 7.86989 14.5383 7.63707 14.5102C7.42028 14.4838 7.20817 14.311 7.00953 14.2131C6.51676 13.9712 6.84547 13.3348 7.28024 13.5598C7.41891 13.6313 7.54957 13.7047 7.67223 13.7801C7.67858 13.784 7.68614 13.7855 7.69349 13.7842C7.70083 13.7829 7.70744 13.7789 7.71207 13.7731Z" fill="white"/>
<path d="M22.2615 13.2422H11.2529C11.0604 13.2422 10.9043 13.3983 10.9043 13.5908V13.5967C10.9043 13.7892 11.0604 13.9453 11.2529 13.9453H22.2615C22.4541 13.9453 22.6102 13.7892 22.6102 13.5967V13.5908C22.6102 13.3983 22.4541 13.2422 22.2615 13.2422Z" fill="white"/>
<path d="M7.7262 16.9395C7.97698 16.6286 8.22034 16.3255 8.45628 16.0302C8.80549 15.5925 9.35276 16.046 9.02522 16.4515C8.70178 16.8515 8.42444 17.1929 8.19319 17.4757C7.99397 17.7188 7.66174 17.7657 7.38928 17.6075C7.24866 17.5259 7.10667 17.4464 6.96331 17.369C6.51858 17.1288 6.86311 16.4849 7.34944 16.7749C7.45491 16.8374 7.55901 16.8966 7.66174 16.9524C7.68674 16.9661 7.70823 16.9618 7.7262 16.9395Z" fill="white"/>
<path d="M22.2621 16.4214H11.2535C11.061 16.4214 10.9049 16.5775 10.9049 16.77V16.7759C10.9049 16.9684 11.061 17.1245 11.2535 17.1245H22.2621C22.4547 17.1245 22.6108 16.9684 22.6108 16.7759V16.77C22.6108 16.5775 22.4547 16.4214 22.2621 16.4214Z" fill="white"/>
</svg>
