<svg width="30" height="30" viewBox="0 0 30 30" fill="none" xmlns="http://www.w3.org/2000/svg">
<g clip-path="url(#clip0_19_1079)">
<path d="M2.06664 0H2.27758C2.61215 0.0392578 2.89399 0.172266 3.13481 0.41543C3.25942 0.54082 3.39145 0.664062 3.5309 0.785156C3.90063 1.10684 4.05824 1.52637 3.87602 2.01152C3.8682 2.03184 3.87035 2.05098 3.88246 2.06895L4.38578 2.83535C4.39083 2.8432 4.39808 2.84939 4.40663 2.85314C4.41517 2.85689 4.42463 2.85804 4.43383 2.85645C4.71078 2.80918 4.96664 2.86699 5.20141 3.02988C5.32406 3.11465 5.47543 3.29844 5.65551 3.58125C5.97348 4.08125 6.30824 4.59199 6.65981 5.11348C6.92543 5.50762 6.93969 5.90801 6.70258 6.31465C6.69816 6.3222 6.69593 6.33081 6.69614 6.33951C6.69634 6.34821 6.69898 6.35665 6.70375 6.36387L7.18188 7.09102C7.19477 7.11055 7.21254 7.11934 7.2352 7.11738C7.69965 7.07676 8.04633 7.23027 8.27524 7.57793C8.85649 8.46152 9.44574 9.35742 10.043 10.2656C10.2075 10.5156 10.1653 10.7223 9.91645 10.8855C9.21527 11.3453 8.52465 11.7982 7.84457 12.2443C7.66 12.3656 7.42211 12.3627 7.2891 12.1611C6.69653 11.2627 6.09613 10.349 5.48793 9.42012C5.25082 9.05723 5.24633 8.67402 5.47445 8.27051C5.48422 8.25332 5.48363 8.23633 5.4727 8.21953L4.9975 7.4959C4.98344 7.47481 4.96371 7.46563 4.93832 7.46836C4.48168 7.51719 4.13246 7.35762 3.89067 6.98965C3.49418 6.38574 3.10375 5.79238 2.71938 5.20957C2.46156 4.81816 2.44887 4.42285 2.68129 4.02363C2.69223 4.00527 2.69184 3.98711 2.68012 3.96914L2.17387 3.19922C2.16137 3.18008 2.14359 3.16973 2.12055 3.16816C1.64828 3.13105 1.33129 2.89551 1.16957 2.46152C1.06371 2.17715 0.96879 1.90391 0.884806 1.6418C0.802775 1.38633 0.842032 1.05762 0.953361 0.806836C1.15883 0.345117 1.52992 0.0761719 2.06664 0ZM1.63188 1.1332C1.58578 1.25078 1.58188 1.36445 1.62016 1.47422C1.70141 1.70742 1.78832 1.95234 1.8809 2.20898C1.95649 2.41816 2.15219 2.46504 2.32563 2.3502C2.58734 2.17637 2.83207 2.01484 3.05981 1.86563C3.22563 1.75664 3.24496 1.55215 3.10082 1.41855C2.91293 1.24395 2.72777 1.07188 2.54535 0.902344C2.24535 0.622852 1.77777 0.759375 1.63188 1.1332ZM3.33665 2.61308C3.33496 2.61051 3.33277 2.6083 3.33022 2.60657C3.32767 2.60484 3.32481 2.60364 3.32179 2.60302C3.31878 2.6024 3.31567 2.60238 3.31265 2.60296C3.30962 2.60355 3.30675 2.60472 3.30418 2.60641L2.8923 2.878C2.88711 2.88142 2.88349 2.88676 2.88224 2.89285C2.88099 2.89894 2.88221 2.90527 2.88564 2.91046L3.27398 3.49942C3.27567 3.50199 3.27786 3.5042 3.28041 3.50593C3.28295 3.50766 3.28582 3.50886 3.28883 3.50948C3.29185 3.5101 3.29496 3.51012 3.29798 3.50954C3.301 3.50895 3.30388 3.50778 3.30645 3.50609L3.71833 3.2345C3.72352 3.23108 3.72713 3.22574 3.72838 3.21965C3.72963 3.21356 3.72841 3.20723 3.72499 3.20204L3.33665 2.61308ZM4.83695 3.71777C4.81715 3.68762 4.79155 3.6617 4.76164 3.64151C4.73173 3.62133 4.69812 3.60729 4.66274 3.6002C4.62736 3.59312 4.59093 3.59313 4.55556 3.60023C4.52018 3.60734 4.48658 3.6214 4.45668 3.6416L3.3891 4.3623C3.3296 4.40236 3.2883 4.46426 3.27415 4.53457C3.26 4.60488 3.27414 4.67794 3.31352 4.73789L4.54047 6.60527C4.58018 6.66565 4.64224 6.70777 4.713 6.72239C4.78377 6.737 4.85744 6.72291 4.91781 6.6832L5.99477 5.97598C6.05514 5.93627 6.09727 5.87421 6.11188 5.80344C6.12649 5.73268 6.1124 5.65901 6.0727 5.59863L4.83695 3.71777ZM6.06742 7.75254C6.07149 7.75872 6.07784 7.76305 6.08508 7.76458C6.09231 7.76612 6.09987 7.76474 6.1061 7.76074L6.51039 7.49531C6.51657 7.49124 6.5209 7.4849 6.52243 7.47766C6.52397 7.47042 6.52259 7.46287 6.5186 7.45664L6.11137 6.83555C6.1073 6.82937 6.10096 6.82504 6.09372 6.82351C6.08648 6.82197 6.07893 6.82335 6.0727 6.82734L5.6684 7.09336C5.66222 7.09743 5.65789 7.10377 5.65636 7.11101C5.65482 7.11825 5.6562 7.1258 5.6602 7.13203L6.06742 7.75254ZM7.73793 11.4129L9.21508 10.4426C9.2189 10.4401 9.22219 10.4369 9.22476 10.4331C9.22734 10.4293 9.22914 10.4251 9.23006 10.4206C9.23099 10.4162 9.23102 10.4116 9.23016 10.4071C9.2293 10.4026 9.22756 10.3983 9.22504 10.3945L7.67172 8.03027C7.62318 7.95639 7.55018 7.90291 7.46876 7.88159C7.38734 7.86028 7.30417 7.87287 7.23754 7.9166L6.20512 8.59512C6.13857 8.63893 6.09402 8.71025 6.08128 8.79343C6.06853 8.8766 6.08863 8.96481 6.13715 9.03867L7.69047 11.4029C7.69549 11.4105 7.70328 11.4158 7.71216 11.4176C7.72104 11.4195 7.7303 11.4178 7.73793 11.4129Z" fill="white"/>
<path d="M17.1111 7.5129C17.0229 7.57076 16.9154 7.59123 16.8121 7.5698C16.7088 7.54838 16.6183 7.48681 16.5604 7.39865L15.4752 5.7463C15.3911 5.6184 15.3326 5.4755 15.3029 5.32577C15.2733 5.17603 15.2731 5.0224 15.3023 4.87364C15.3316 4.72488 15.3898 4.58391 15.4735 4.45878C15.5573 4.33364 15.665 4.2268 15.7904 4.14435L16.3154 3.79982C16.4409 3.71736 16.5817 3.6609 16.7298 3.63368C16.8779 3.60646 17.0304 3.609 17.1785 3.64115C17.3267 3.67331 17.4676 3.73445 17.5933 3.82109C17.719 3.90774 17.8269 4.01818 17.9109 4.14611L18.9961 5.79845C19.054 5.88658 19.0746 5.99409 19.0533 6.09737C19.032 6.20064 18.9705 6.29123 18.8824 6.34923L17.1111 7.5129ZM17.0227 6.6674L18.1412 5.93263C18.1484 5.92785 18.1534 5.92044 18.1552 5.91199C18.1569 5.90355 18.1553 5.89476 18.1506 5.88751L17.2752 4.55509C17.2461 4.51078 17.2085 4.47265 17.1647 4.44286C17.1208 4.41308 17.0715 4.39224 17.0195 4.38152C16.9675 4.3708 16.914 4.37042 16.8618 4.38039C16.8097 4.39037 16.76 4.41051 16.7156 4.43966L16.2182 4.76603C16.1738 4.7952 16.1356 4.83281 16.1057 4.87672C16.0759 4.92064 16.055 4.96998 16.0442 5.02195C16.0334 5.07391 16.033 5.12747 16.0429 5.17958C16.0529 5.23168 16.073 5.2813 16.1022 5.3256L16.977 6.65802C16.9793 6.66166 16.9824 6.66478 16.986 6.66723C16.9896 6.66967 16.9936 6.67137 16.9979 6.67225C17.0021 6.67312 17.0065 6.67314 17.0107 6.67231C17.015 6.67147 17.0191 6.6698 17.0227 6.6674Z" fill="white"/>
<path d="M14.0841 8.95963C13.997 9.0168 13.8906 9.03701 13.7886 9.0158C13.6865 8.99459 13.597 8.93371 13.5398 8.84654L12.031 6.54967C11.9461 6.42045 11.887 6.27616 11.8569 6.12504C11.8268 5.97392 11.8264 5.81893 11.8556 5.66893C11.8849 5.51892 11.9433 5.37682 12.0275 5.25077C12.1117 5.12471 12.22 5.01715 12.3462 4.93424L12.8607 4.59674C13.1156 4.42936 13.4281 4.37243 13.7295 4.43847C14.0309 4.5045 14.2965 4.68809 14.4679 4.94888L15.9767 7.24576C16.0339 7.33287 16.0542 7.43914 16.0331 7.54122C16.0121 7.64329 15.9513 7.73281 15.8642 7.79009L14.0841 8.95963ZM14.0033 8.11002L15.1166 7.37818C15.1247 7.3728 15.1304 7.36442 15.1323 7.35487C15.1343 7.34532 15.1324 7.33537 15.1271 7.3272L13.8568 5.39302C13.8238 5.34273 13.7825 5.29858 13.7354 5.26308C13.6882 5.22758 13.636 5.20144 13.5818 5.18615C13.5276 5.17086 13.4724 5.16672 13.4195 5.17396C13.3665 5.18121 13.3168 5.1997 13.2732 5.22838L12.7623 5.56412C12.7187 5.59275 12.682 5.63101 12.6543 5.67669C12.6266 5.72237 12.6085 5.77458 12.601 5.83035C12.5935 5.88612 12.5968 5.94435 12.6105 6.00172C12.6243 6.05909 12.6484 6.11447 12.6814 6.1647L13.9517 8.09947C13.9544 8.10358 13.9578 8.10712 13.9619 8.10988C13.9659 8.11264 13.9705 8.11456 13.9753 8.11555C13.9801 8.11653 13.985 8.11654 13.9898 8.1156C13.9946 8.11465 13.9992 8.11275 14.0033 8.11002Z" fill="white"/>
<path d="M11.0977 10.4572C11.0545 10.4856 11.0061 10.5053 10.9552 10.515C10.9044 10.5246 10.8522 10.5242 10.8015 10.5137C10.7509 10.5032 10.7028 10.4828 10.66 10.4537C10.6172 10.4246 10.5806 10.3874 10.5522 10.3441L9.21509 8.308C9.13115 8.18027 9.07276 8.03754 9.04326 7.88796C9.01377 7.73838 9.01374 7.58489 9.04317 7.43623C9.07261 7.28758 9.13094 7.14669 9.21482 7.0216C9.29871 6.89652 9.40651 6.78969 9.53208 6.70722L10.0559 6.36328C10.1814 6.28079 10.3223 6.22428 10.4704 6.19695C10.6185 6.16963 10.7709 6.17203 10.919 6.20402C11.0671 6.23602 11.208 6.29697 11.3335 6.38341C11.4591 6.46985 11.5669 6.58008 11.6508 6.70781L12.9885 8.74394C13.0169 8.78718 13.0366 8.83559 13.0463 8.88641C13.0559 8.93723 13.0555 8.98947 13.045 9.04013C13.0345 9.09079 13.0141 9.13889 12.985 9.18167C12.9559 9.22445 12.9187 9.26107 12.8754 9.28945L11.0977 10.4572ZM11.0063 9.61113L12.1331 8.87402C12.1396 8.86982 12.1442 8.8632 12.1458 8.85562C12.1475 8.84804 12.146 8.84012 12.1418 8.83359L11.0274 7.13027C10.9663 7.03708 10.8711 6.97171 10.7628 6.94852C10.6544 6.92533 10.5418 6.94624 10.4497 7.00664L9.96919 7.3207C9.92346 7.35056 9.88413 7.38924 9.85345 7.43454C9.82278 7.47983 9.80136 7.53085 9.79042 7.58468C9.77948 7.6385 9.77924 7.69407 9.7897 7.74821C9.80017 7.80235 9.82114 7.854 9.85141 7.90019L10.9659 9.60292C10.9702 9.60935 10.9768 9.61381 10.9844 9.61535C10.992 9.61688 10.9998 9.61537 11.0063 9.61113Z" fill="white"/>
<path d="M19.7321 8.31909C19.7321 8.59027 19.6243 8.85033 19.4326 9.04208C19.2408 9.23383 18.9808 9.34155 18.7096 9.34155C18.4384 9.34155 18.1784 9.23383 17.9866 9.04208C17.7949 8.85033 17.6871 8.59027 17.6871 8.31909C17.6871 8.04792 17.7949 7.78785 17.9866 7.5961C18.1784 7.40435 18.4384 7.29663 18.7096 7.29663C18.9808 7.29663 19.2408 7.40435 19.4326 7.5961C19.6243 7.78785 19.7321 8.04792 19.7321 8.31909ZM18.9768 8.31909C18.9768 8.24807 18.9486 8.17996 18.8984 8.12975C18.8481 8.07953 18.78 8.05132 18.709 8.05132C18.638 8.05132 18.5699 8.07953 18.5197 8.12975C18.4694 8.17996 18.4412 8.24807 18.4412 8.31909C18.4412 8.35426 18.4482 8.38908 18.4616 8.42156C18.4751 8.45405 18.4948 8.48357 18.5197 8.50844C18.5445 8.5333 18.5741 8.55303 18.6065 8.56648C18.639 8.57994 18.6738 8.58687 18.709 8.58687C18.7442 8.58687 18.779 8.57994 18.8115 8.56648C18.844 8.55303 18.8735 8.5333 18.8984 8.50844C18.9232 8.48357 18.9429 8.45405 18.9564 8.42156C18.9699 8.38908 18.9768 8.35426 18.9768 8.31909Z" fill="white"/>
<path d="M16.8475 9.67092C16.8475 9.94194 16.7398 10.2019 16.5482 10.3935C16.3565 10.5851 16.0966 10.6928 15.8256 10.6928C15.5546 10.6928 15.2947 10.5851 15.103 10.3935C14.9114 10.2019 14.8037 9.94194 14.8037 9.67092C14.8037 9.3999 14.9114 9.13999 15.103 8.94835C15.2947 8.75671 15.5546 8.64905 15.8256 8.64905C16.0966 8.64905 16.3565 8.75671 16.5482 8.94835C16.7398 9.13999 16.8475 9.3999 16.8475 9.67092ZM16.0928 9.67151C16.0928 9.60065 16.0646 9.53269 16.0145 9.48258C15.9644 9.43247 15.8964 9.40432 15.8256 9.40432C15.7547 9.40432 15.6868 9.43247 15.6367 9.48258C15.5865 9.53269 15.5584 9.60065 15.5584 9.67151C15.5584 9.74237 15.5865 9.81033 15.6367 9.86044C15.6868 9.91055 15.7547 9.9387 15.8256 9.9387C15.8964 9.9387 15.9644 9.91055 16.0145 9.86044C16.0646 9.81033 16.0928 9.74237 16.0928 9.67151Z" fill="white"/>
<path d="M19.9605 21.7547C19.5929 22.4926 19.5312 23.269 19.7754 24.0838C19.8726 24.4078 20.182 24.7442 19.7636 25.016C19.2293 25.3637 18.7338 25.6885 18.2771 25.9904C18.1103 26.1006 17.9554 26.1067 17.8125 26.0086C16.5781 25.1617 15.3154 24.2928 14.0244 23.4018C13.9884 23.377 13.9578 23.3456 13.9342 23.3092C12.2295 20.7158 10.6629 18.3246 9.23435 16.1356C8.9492 15.6985 8.91638 15.2512 9.13591 14.7938C9.26638 14.5219 9.47908 14.3137 9.774 14.1692C13.2912 12.4446 16.7818 10.7272 20.2459 9.01701C20.5611 8.86115 20.7961 8.77502 20.9508 8.75861C21.3043 8.72111 21.6281 8.80783 21.9222 9.01877C22.0418 9.10471 22.173 9.25607 22.316 9.47287C23.5832 11.3994 24.8541 13.3356 26.1287 15.2813C26.1607 15.3297 26.1824 15.3826 26.1937 15.4401C26.4844 16.9217 26.7783 18.4115 27.0756 19.9096C27.1078 20.0719 27.0416 20.2289 26.901 20.3221C26.4662 20.6108 26.0181 20.9051 25.5568 21.2051C25.3676 21.3281 25.1648 21.2654 25.0248 21.1055C23.5939 19.4637 20.9285 19.8135 19.9605 21.7547ZM14.3496 12.7617C12.9258 13.4596 11.5734 14.124 10.2574 14.7727C10.0484 14.8758 9.91716 14.9668 9.86365 15.0457C9.68318 15.3123 9.74236 15.5572 9.90291 15.801C11.4103 18.0936 12.916 20.3854 14.4199 22.6764C14.4233 22.6816 14.4287 22.6851 14.4348 22.6863C14.441 22.6875 14.4474 22.6863 14.4527 22.6828L16.9787 21.0223C16.9847 21.0182 16.9889 21.0119 16.9904 21.0048C16.9918 20.9977 16.9903 20.9903 16.9863 20.9842L15.2619 18.3592C15.259 18.3549 15.2549 18.3516 15.2502 18.3497C15.2455 18.3478 15.2403 18.3474 15.2355 18.3487C14.6945 18.4791 14.239 18.3516 13.8691 17.966C13.292 17.3625 13.4513 16.3781 14.124 15.9404C14.6888 15.5731 15.4295 15.6727 15.8701 16.1842C16.2984 16.6811 16.3019 17.3819 15.9029 17.8998C15.8877 17.919 15.8869 17.9389 15.9006 17.9596C16.5416 18.9315 17.1818 19.9063 17.8213 20.884C17.9947 21.1494 17.8687 21.344 17.6373 21.4957C16.7627 22.068 15.9072 22.6285 15.0709 23.1774C15.0684 23.1789 15.0664 23.1811 15.065 23.1836C15.0636 23.1861 15.0628 23.189 15.0627 23.1919C15.0627 23.1948 15.0633 23.1976 15.0646 23.2002C15.066 23.2028 15.0679 23.205 15.0703 23.2067L18.0117 25.2322C18.0181 25.2367 18.0257 25.2391 18.0337 25.2391C18.0416 25.2391 18.0495 25.2367 18.0562 25.2322L19.1138 24.5367C19.1192 24.5331 19.1231 24.5277 19.125 24.5216C19.1269 24.5154 19.1267 24.5088 19.1244 24.5028C18.4564 22.6981 19.1894 20.6713 20.8939 19.7643C22.3857 18.9697 24.1482 19.2194 25.3834 20.383C25.3896 20.3889 25.3975 20.3925 25.4059 20.3932C25.4143 20.394 25.4227 20.3918 25.4297 20.3871L26.2599 19.8434C26.2795 19.8305 26.2869 19.8127 26.2822 19.7901L25.4719 15.6785C25.4668 15.6528 25.457 15.6289 25.4426 15.607L23.8886 13.2416C23.8868 13.2388 23.8845 13.2364 23.8817 13.2345C23.8789 13.2326 23.8758 13.2313 23.8724 13.2306C23.8691 13.23 23.8657 13.23 23.8623 13.2307C23.859 13.2313 23.8558 13.2327 23.8529 13.2346L20.025 15.7488C20.0027 15.7633 19.9988 15.7817 20.0133 15.8039L20.397 16.3887C20.4119 16.411 20.4324 16.4192 20.4586 16.4133C20.989 16.2922 21.4357 16.4196 21.7986 16.7953C22.2258 17.2377 22.2785 17.925 21.9492 18.4436C21.4195 19.2768 20.2394 19.2475 19.6998 18.4641C19.3646 17.9778 19.401 17.3303 19.7701 16.8674C19.7849 16.8494 19.7859 16.8307 19.773 16.8112C19.5683 16.5014 19.3666 16.1938 19.1678 15.8883C19.0301 15.6762 19.091 15.4588 19.2873 15.3299C20.7428 14.3752 22.1238 13.4682 23.4304 12.6088C23.4344 12.6063 23.4377 12.603 23.4404 12.5991C23.443 12.5952 23.4448 12.5909 23.4458 12.5863C23.4467 12.5817 23.4467 12.577 23.4458 12.5724C23.4449 12.5678 23.443 12.5635 23.4404 12.5596C22.8756 11.7018 22.2865 10.8035 21.6732 9.86486C21.4793 9.56779 21.191 9.39728 20.8371 9.57189C18.8394 10.5547 16.9168 11.5002 15.0691 12.4084C15.0666 12.4096 15.0643 12.4113 15.0625 12.4134C15.0607 12.4155 15.0593 12.4179 15.0586 12.4206C15.0578 12.4233 15.0576 12.4261 15.058 12.4288C15.0584 12.4316 15.0594 12.4342 15.0609 12.4365L16.101 14.0192C16.1088 14.0309 16.1187 14.0328 16.1308 14.025L17.7797 12.9422C17.7965 12.9313 17.8025 12.916 17.7978 12.8965C17.6849 12.4129 17.7828 11.9924 18.0914 11.635C18.3539 11.3309 18.7799 11.1545 19.1818 11.185C20.2066 11.2623 20.8113 12.4096 20.2054 13.2879C19.8006 13.875 19.0482 14.0367 18.4195 13.6934C18.3562 13.6588 18.3029 13.6072 18.2414 13.5733C18.2219 13.5623 18.2027 13.5631 18.184 13.5756C17.4945 14.0346 16.8373 14.4654 16.2123 14.8682C15.9697 15.024 15.7664 14.8946 15.6328 14.6877C15.1926 14.0045 14.7728 13.3647 14.3736 12.7682C14.371 12.7645 14.3672 12.7618 14.3628 12.7606C14.3584 12.7594 14.3537 12.7598 14.3496 12.7617ZM19.6869 12.5279C19.6869 12.3711 19.6246 12.2208 19.5137 12.1099C19.4029 11.999 19.2525 11.9367 19.0957 11.9367C18.9389 11.9367 18.7885 11.999 18.6776 12.1099C18.5668 12.2208 18.5045 12.3711 18.5045 12.5279C18.5045 12.6847 18.5668 12.8351 18.6776 12.946C18.7885 13.0569 18.9389 13.1192 19.0957 13.1192C19.2525 13.1192 19.4029 13.0569 19.5137 12.946C19.6246 12.8351 19.6869 12.6847 19.6869 12.5279ZM15.4424 17.0531C15.4424 16.8968 15.3803 16.7469 15.2697 16.6363C15.1592 16.5258 15.0092 16.4637 14.8529 16.4637C14.6966 16.4637 14.5466 16.5258 14.4361 16.6363C14.3256 16.7469 14.2635 16.8968 14.2635 17.0531C14.2635 17.2095 14.3256 17.3594 14.4361 17.47C14.5466 17.5805 14.6966 17.6426 14.8529 17.6426C15.0092 17.6426 15.1592 17.5805 15.2697 17.47C15.3803 17.3594 15.4424 17.2095 15.4424 17.0531ZM21.409 17.7141C21.409 17.557 21.3465 17.4063 21.2355 17.2952C21.1244 17.1841 20.9737 17.1217 20.8166 17.1217C20.6595 17.1217 20.5088 17.1841 20.3977 17.2952C20.2866 17.4063 20.2242 17.557 20.2242 17.7141C20.2242 17.8712 20.2866 18.0219 20.3977 18.133C20.5088 18.2441 20.6595 18.3065 20.8166 18.3065C20.9737 18.3065 21.1244 18.2441 21.2355 18.133C21.3465 18.0219 21.409 17.8712 21.409 17.7141Z" fill="white"/>
<path d="M13.861 11.1692C13.861 11.4404 13.7532 11.7004 13.5615 11.8922C13.3697 12.0839 13.1097 12.1917 12.8385 12.1917C12.5673 12.1917 12.3073 12.0839 12.1155 11.8922C11.9238 11.7004 11.816 11.4404 11.816 11.1692C11.816 10.898 11.9238 10.6379 12.1155 10.4462C12.3073 10.2545 12.5673 10.1467 12.8385 10.1467C13.1097 10.1467 13.3697 10.2545 13.5615 10.4462C13.7532 10.6379 13.861 10.898 13.861 11.1692ZM13.1063 11.1692C13.1063 11.0983 13.0781 11.0304 13.028 10.9803C12.9779 10.9302 12.9099 10.902 12.8391 10.902C12.7682 10.902 12.7003 10.9302 12.6502 10.9803C12.6 11.0304 12.5719 11.0983 12.5719 11.1692C12.5719 11.2401 12.6 11.308 12.6502 11.3581C12.7003 11.4082 12.7682 11.4364 12.8391 11.4364C12.9099 11.4364 12.9779 11.4082 13.028 11.3581C13.0781 11.308 13.1063 11.2401 13.1063 11.1692Z" fill="white"/>
<path d="M10.6752 12.7196C10.6752 12.9906 10.5676 13.2506 10.3759 13.4422C10.1843 13.6338 9.92436 13.7415 9.65334 13.7415C9.38233 13.7415 9.12241 13.6338 8.93077 13.4422C8.73913 13.2506 8.63147 12.9906 8.63147 12.7196C8.63147 12.4486 8.73913 12.1887 8.93077 11.9971C9.12241 11.8054 9.38233 11.6978 9.65334 11.6978C9.92436 11.6978 10.1843 11.8054 10.3759 11.9971C10.5676 12.1887 10.6752 12.4486 10.6752 12.7196ZM9.92229 12.7196C9.92229 12.6483 9.89395 12.5799 9.84352 12.5295C9.79308 12.479 9.72467 12.4507 9.65334 12.4507C9.58202 12.4507 9.51361 12.479 9.46317 12.5295C9.41273 12.5799 9.3844 12.6483 9.3844 12.7196C9.3844 12.791 9.41273 12.8594 9.46317 12.9098C9.51361 12.9602 9.58202 12.9886 9.65334 12.9886C9.72467 12.9886 9.79308 12.9602 9.84352 12.9098C9.89395 12.8594 9.92229 12.791 9.92229 12.7196Z" fill="white"/>
<path d="M7.70446 21.1324L8.65837 21.3299C8.6818 21.3349 8.70134 21.3285 8.71696 21.3105C9.03376 20.9515 9.42321 20.822 9.88532 20.922C10.2189 20.9943 10.5728 21.0672 10.947 21.1406C11.1931 21.1892 11.3215 21.382 11.2693 21.631C11.1037 22.4275 10.9355 23.2425 10.7648 24.0761C10.715 24.3187 10.5386 24.4746 10.2797 24.4189C9.93747 24.3451 9.58259 24.2715 9.21501 24.198C8.74548 24.1039 8.43649 23.8289 8.28805 23.373C8.28503 23.3638 8.27959 23.3555 8.27228 23.349C8.26498 23.3425 8.25607 23.3381 8.24645 23.3361L7.25329 23.1304C7.22829 23.125 7.21364 23.1347 7.20934 23.1597C7.19763 23.2273 7.18415 23.2955 7.16891 23.3642C7.1197 23.5869 6.93688 23.7246 6.71364 23.6783C5.29216 23.3849 3.96325 23.1097 2.72692 22.8527C2.43747 22.7929 2.36071 22.5545 2.43337 22.2937C2.84645 20.8043 4.19294 19.8644 5.72223 20.0724C6.21149 20.1392 6.70134 20.2781 7.19059 20.3607C7.39138 20.3943 7.52536 20.447 7.59255 20.5189C7.70739 20.642 7.72536 20.8119 7.64645 21.0287C7.62575 21.0853 7.64509 21.1199 7.70446 21.1324ZM3.26598 22.1642C3.25778 22.1826 3.26345 22.1937 3.28298 22.1976L6.47048 22.8592C6.49157 22.8638 6.50446 22.8554 6.50915 22.834L6.86598 21.1072C6.87106 21.0834 6.86169 21.0689 6.83786 21.0638C6.45505 20.981 6.08708 20.9052 5.73395 20.8365C4.68161 20.6326 3.70192 21.1875 3.26598 22.1642ZM10.1004 23.5717L10.4566 21.8519C10.4589 21.841 10.4567 21.8296 10.4505 21.8202C10.4444 21.8109 10.4348 21.8044 10.4238 21.8021L9.70309 21.6527C9.59662 21.6307 9.48565 21.6524 9.39456 21.713C9.30348 21.7737 9.23974 21.8683 9.21735 21.9761L9.01227 22.9652C9.00115 23.0187 9.00054 23.0738 9.01048 23.1274C9.02042 23.181 9.04072 23.232 9.07022 23.2776C9.09972 23.3231 9.13783 23.3623 9.18238 23.3928C9.22693 23.4234 9.27704 23.4447 9.32985 23.4556L10.0506 23.6045C10.0615 23.6067 10.0729 23.6045 10.0822 23.5984C10.0916 23.5922 10.0981 23.5826 10.1004 23.5717ZM8.43155 22.0743C8.43268 22.0688 8.4316 22.0631 8.42853 22.0585C8.42545 22.0538 8.42065 22.0505 8.41517 22.0494L7.50174 21.8602C7.49626 21.8591 7.49056 21.8602 7.48588 21.8632C7.48121 21.8663 7.47794 21.8711 7.47681 21.8766L7.37581 22.3643C7.37467 22.3698 7.37576 22.3755 7.37883 22.3802C7.38191 22.3848 7.38671 22.3881 7.39219 22.3892L8.30562 22.5784C8.3111 22.5795 8.3168 22.5784 8.32148 22.5754C8.32615 22.5723 8.32942 22.5675 8.33055 22.562L8.43155 22.0743Z" fill="white"/>
<path d="M25.4133 23.1434C25.4133 23.8447 25.1347 24.5173 24.6388 25.0132C24.1429 25.5091 23.4703 25.7877 22.769 25.7877C22.0676 25.7877 21.3951 25.5091 20.8991 25.0132C20.4032 24.5173 20.1246 23.8447 20.1246 23.1434C20.1246 22.442 20.4032 21.7694 20.8991 21.2735C21.3951 20.7776 22.0676 20.499 22.769 20.499C23.4703 20.499 24.1429 20.7776 24.6388 21.2735C25.1347 21.7694 25.4133 22.442 25.4133 23.1434ZM24.661 23.1445C24.661 22.6445 24.4623 22.1649 24.1087 21.8112C23.7551 21.4576 23.2755 21.259 22.7754 21.259C22.5278 21.259 22.2826 21.3078 22.0538 21.4025C21.8251 21.4973 21.6172 21.6362 21.4421 21.8112C21.267 21.9863 21.1282 22.1942 21.0334 22.423C20.9386 22.6517 20.8899 22.8969 20.8899 23.1445C20.8899 23.3921 20.9386 23.6373 21.0334 23.8661C21.1282 24.0949 21.267 24.3027 21.4421 24.4778C21.6172 24.6529 21.8251 24.7918 22.0538 24.8865C22.2826 24.9813 22.5278 25.0301 22.7754 25.0301C23.2755 25.0301 23.7551 24.8314 24.1087 24.4778C24.4623 24.1242 24.661 23.6446 24.661 23.1445Z" fill="white"/>
<path d="M22.8176 30H22.5838C22.1888 29.9396 21.9152 29.7439 21.6967 29.4099C20.9299 28.2365 20.1799 27.0939 19.4467 25.9822C19.2914 25.7472 19.4156 25.5175 19.6342 25.3904C19.9201 25.224 20.1855 24.907 20.5078 25.2574C21.3627 26.1855 22.5181 26.516 23.7299 26.1744C24.6135 25.9248 25.3828 25.2052 25.7109 24.324C26.0187 23.4982 25.9803 22.6734 25.5955 21.8496C25.4982 21.641 25.6189 21.4511 25.8035 21.3392C25.9258 21.2658 26.0443 21.1873 26.1592 21.1037C26.3578 20.9589 26.615 20.9613 26.7562 21.1769C27.4902 22.2976 28.2369 23.4328 28.9963 24.5824C29.0955 24.7332 29.1644 24.8755 29.2031 25.0095C29.3068 25.3699 29.2096 25.7871 28.9594 26.0683C28.8902 26.1457 28.7517 26.2527 28.5439 26.3894C26.7971 27.539 25.0492 28.6873 23.3004 29.8341C23.1769 29.915 23.016 29.9703 22.8176 30ZM26.5529 22.2855C27.0597 24.3462 25.807 26.4955 23.6941 26.9642C22.6074 27.2052 21.59 27.0111 20.642 26.3818C20.6068 26.3584 20.6008 26.3644 20.6238 26.4C21.1887 27.255 21.7494 28.1105 22.306 28.9664C22.4566 29.1978 22.6693 29.3461 22.9248 29.1785C24.7486 27.9836 26.5435 26.8039 28.3096 25.6394C28.5668 25.4701 28.5111 25.2158 28.3623 24.9908C27.7431 24.0548 27.1478 23.1498 26.5763 22.2755C26.5486 22.2326 26.5408 22.2359 26.5529 22.2855Z" fill="white"/>
<path d="M13.3805 23.1404C13.3805 23.4121 13.2726 23.6726 13.0805 23.8647C12.8884 24.0567 12.6279 24.1646 12.3563 24.1646C12.0846 24.1646 11.8241 24.0567 11.632 23.8647C11.4399 23.6726 11.332 23.4121 11.332 23.1404C11.332 22.8688 11.4399 22.6083 11.632 22.4162C11.8241 22.2241 12.0846 22.1162 12.3563 22.1162C12.6279 22.1162 12.8884 22.2241 13.0805 22.4162C13.2726 22.6083 13.3805 22.8688 13.3805 23.1404ZM12.6246 23.141C12.6246 23.0697 12.5963 23.0013 12.5458 22.9508C12.4954 22.9004 12.427 22.8721 12.3557 22.8721C12.2843 22.8721 12.2159 22.9004 12.1655 22.9508C12.1151 23.0013 12.0867 23.0697 12.0867 23.141C12.0867 23.2123 12.1151 23.2808 12.1655 23.3312C12.2159 23.3816 12.2843 23.41 12.3557 23.41C12.427 23.41 12.4954 23.3816 12.5458 23.3312C12.5963 23.2808 12.6246 23.2123 12.6246 23.141Z" fill="white"/>
<path d="M23.7985 23.1445C23.7985 23.4157 23.6907 23.6758 23.499 23.8675C23.3072 24.0593 23.0472 24.167 22.776 24.167C22.5048 24.167 22.2448 24.0593 22.053 23.8675C21.8613 23.6758 21.7535 23.4157 21.7535 23.1445C21.7535 22.8734 21.8613 22.6133 22.053 22.4215C22.2448 22.2298 22.5048 22.1221 22.776 22.1221C23.0472 22.1221 23.3072 22.2298 23.499 22.4215C23.6907 22.6133 23.7985 22.8734 23.7985 23.1445ZM23.0432 23.1445C23.0432 23.0737 23.015 23.0057 22.9649 22.9556C22.9148 22.9055 22.8469 22.8773 22.776 22.8773C22.7051 22.8773 22.6372 22.9055 22.5871 22.9556C22.537 23.0057 22.5088 23.0737 22.5088 23.1445C22.5088 23.2154 22.537 23.2834 22.5871 23.3335C22.6372 23.3836 22.7051 23.4117 22.776 23.4117C22.8469 23.4117 22.9148 23.3836 22.9649 23.3335C23.015 23.2834 23.0432 23.2154 23.0432 23.1445Z" fill="white"/>
</g>
<defs>
<clipPath id="clip0_19_1079">
<rect width="30" height="30" fill="white"/>
</clipPath>
</defs>
</svg>
